<?xml version="1.0" encoding="UTF-8"?>
<svg id="Layer_1" xmlns="http://www.w3.org/2000/svg" version="1.1" viewBox="0 0 384 384">
  <!-- Generator: Adobe Illustrator 29.8.2, SVG Export Plug-In . SVG Version: 2.1.1 Build 3)  -->
  <defs>
    <style>
      .st0 {
        fill: #f9a62a;
      }

      .st1 {
        fill: #70b1e1;
      }

      .st2, .st3 {
        fill: #f7981e;
      }

      .st3 {
        font-family: Nunito-ExtraBold, Nunito;
        font-size: 128.87px;
        font-weight: 700;
      }

      .st4 {
        fill: #f7981d;
      }

      .st5 {
        fill: #f9a629;
      }

      .st6 {
        fill: #579fd6;
      }

      .st7 {
        fill: #94c7eb;
      }

      .st8 {
        fill: #478fcb;
      }
    </style>
  </defs>
  <g>
    <path class="st1" d="M262.62,258.93c.05,16.06,1.65,37.7,0,53.06-.6,5.56-4.64,8.98-10.07,9.46-19.02,1.69-43.23-.03-62.85-.03v-114.58c19.56,0,44.66-1.86,63.51-.03,4.44.43,8.86,4.17,9.42,8.81,1.47,12.22-.05,30.37-.01,43.31Z"/>
    <path class="st7" d="M189.71,206.85v114.58c-19.62,0-43.83,1.71-62.85.03-5.43-.48-9.47-3.9-10.07-9.46-1.64-15.35-.05-37.01,0-53.06.04-13.05-1.34-30.15,0-42.64.59-5.53,4.61-8.98,10.07-9.46,19.03-1.68,43.22.03,62.85.03Z"/>
    <path class="st8" d="M261.32,165.19c15.06.04,30.14-.07,45.2.04,6.04,1.73,9.62,7.42,7.88,13.66l-21.94,75.06c-1.61,2.12-4.02,4.52-6.77,4.95-6.86,1.06-15.95-.7-23.07.04-.04-12.94,1.48-31.09.01-43.31-.56-4.63-4.98-8.38-9.42-8.81-18.84-1.83-43.94.03-63.51.03v-41.66c23.86,0,47.75-.07,71.61,0Z"/>
    <path class="st6" d="M118.1,165.19c23.86-.07,47.75,0,71.61,0v41.66c-19.63,0-43.81-1.71-62.85-.03-5.46.48-9.47,3.93-10.07,9.46-1.34,12.49.04,29.59,0,42.64-8.34-1.2-24.79,3.49-29.85-4.98-6.12-24.21-16.23-49.39-21.39-73.66-1.6-7.51-.43-12.5,7.45-14.95,15.02-.32,30.07-.11,45.09-.16Z"/>
    <path class="st4" d="M261.32,165.19c-23.86-.07-47.75,0-71.61,0v-41.66c12.06-.02,26.2-1.32,37.62,2.42,16.76,5.49,31.54,21.63,33.99,39.24Z"/>
    <path class="st5" d="M189.71,123.52v41.66c-23.86,0-47.75-.07-71.61,0,2.58-17.14,16.15-32.42,32.21-38.42,12.39-4.63,26.29-3.22,39.4-3.24Z"/>
    <path class="st2" d="M189.71,113.11V40.19c26.49-.25,33.94,23.91,31.08,46.38-1.9,14.95-16.28,26.54-31.08,26.53Z"/>
    <path class="st0" d="M189.71,40.19v72.91c-41.96-.02-43.24-72.51,0-72.91Z"/>
  </g>
  <text class="st3" transform="translate(32.94 348.03)"><tspan x="0" y="0">L</tspan></text>
  <text class="st3" transform="translate(292.07 348.03)"><tspan x="0" y="0">F</tspan></text>
</svg>