<?xml version="1.0" encoding="iso-8859-1"?>
<!-- Uploaded to: SVG Repo, www.svgrepo.com, Generator: SVG Repo Mixer Tools -->
<svg height="800px" width="800px" version="1.1" id="Layer_1" xmlns="http://www.w3.org/2000/svg" xmlns:xlink="http://www.w3.org/1999/xlink" 
	 viewBox="0 0 512 512" xml:space="preserve">
<polygon style="fill:#FFA01F;" points="120.369,237.654 140.946,299.152 199.36,335.24 224.293,271.264 203.716,209.766 "/>
<polygon style="fill:#FFBF1F;" points="99.791,176.15 120.369,237.654 178.785,273.747 203.716,209.766 183.137,148.264 "/>
<path style="fill:#FFD66E;" d="M141.602,51.828c-4.604,1.54-7.087,6.521-5.546,11.124l16.538,49.424l-14.959,38.382l-35.047-21.65
	L86.051,79.684c-1.54-4.604-6.521-7.087-11.124-5.546s-7.087,6.521-5.546,11.124l30.411,90.888l58.419,36.104l24.928-63.991
	l-30.411-90.888C151.186,52.771,146.206,50.288,141.602,51.828z"/>
<path style="fill:#FFB34C;" d="M217.62,500.91c-4.854,0-8.79-3.936-8.79-8.79l-0.001-100.877L90.295,36.983
	c-1.539-4.604,0.943-9.584,5.547-11.124c4.605-1.541,9.585,0.943,11.124,5.546l118.988,355.618c0.3,0.899,0.454,1.841,0.454,2.79
	l0.001,102.309C226.409,496.974,222.474,500.91,217.62,500.91z"/>
<polygon style="fill:#FFA01F;" points="391.631,237.654 371.054,299.152 312.64,335.24 287.707,271.264 308.284,209.766 "/>
<polygon style="fill:#FFBF1F;" points="412.209,176.15 391.631,237.654 333.215,273.747 308.284,209.766 328.863,148.264 "/>
<path style="fill:#FFD66E;" d="M370.398,51.828c4.604,1.54,7.087,6.521,5.546,11.124l-16.538,49.424l14.959,38.382l35.046-21.651
	l16.538-49.424c1.54-4.604,6.521-7.087,11.124-5.546s7.087,6.521,5.546,11.124l-30.411,90.888l-58.419,36.104l-24.928-63.991
	l30.411-90.888C360.814,52.771,365.794,50.288,370.398,51.828z"/>
<g>
	<path style="fill:#FFB34C;" d="M294.38,500.91c4.854,0,8.79-3.936,8.79-8.79l0.001-100.877l118.533-354.26
		c1.539-4.604-0.943-9.584-5.547-11.124c-4.605-1.541-9.585,0.943-11.124,5.546L286.045,387.023c-0.3,0.899-0.454,1.841-0.454,2.79
		l-0.001,102.309C285.591,496.974,289.526,500.91,294.38,500.91z"/>
	<polygon style="fill:#FFB34C;" points="212.056,208.635 212.056,273.484 256,326.243 299.944,273.484 299.944,208.635 	"/>
</g>
<polygon style="fill:#FFD66E;" points="212.056,143.78 212.056,208.635 256,261.398 299.944,208.635 299.944,143.78 "/>
<path style="fill:#FFBF1F;" d="M291.154,39.149c-4.854,0-8.79,3.936-8.79,8.79v52.119L256,131.71l-26.365-31.653V47.939
	c0-4.854-3.936-8.79-8.79-8.79s-8.79,3.936-8.79,8.79v95.841L256,196.554l43.944-52.774V47.939
	C299.944,43.084,296.009,39.149,291.154,39.149z"/>
<path style="fill:#FFA01F;" d="M256,512c-4.854,0-8.79-3.936-8.79-8.79V8.79c0-4.854,3.936-8.79,8.79-8.79
	c4.854,0,8.79,3.936,8.79,8.79V503.21C264.79,508.064,260.854,512,256,512z"/>
<path style="fill:#76472D;" d="M311.45,430.511h-110.9c-4.854,0-8.79-3.936-8.79-8.79c0-4.854,3.936-8.79,8.79-8.79h110.9
	c4.854,0,8.79,3.936,8.79,8.79C320.24,426.575,316.304,430.511,311.45,430.511z"/>
<path style="fill:#9E6134;" d="M311.45,396.451h-110.9c-4.854,0-8.79-3.936-8.79-8.79c0-4.854,3.936-8.79,8.79-8.79h110.9
	c4.854,0,8.79,3.936,8.79,8.79C320.24,392.515,316.304,396.451,311.45,396.451z"/>
</svg>