<?xml version="1.0" encoding="iso-8859-1"?>
<!-- Uploaded to: SVG Repo, www.svgrepo.com, Generator: SVG Repo Mixer Tools -->
<svg version="1.1" id="Layer_1" xmlns="http://www.w3.org/2000/svg" xmlns:xlink="http://www.w3.org/1999/xlink" 
	 viewBox="0 0 512.005 512.005" xml:space="preserve">
<g>
	<rect x="125.451" y="90.069" style="fill:#FFDBA5;" width="78.723" height="222.322"/>
	<rect x="307.826" y="90.069" style="fill:#FFDBA5;" width="78.723" height="222.322"/>
</g>
<g>
	<rect x="377.446" y="103.722" style="fill:#FFEED1;" width="18.204" height="195.015"/>
	<rect x="116.349" y="103.722" style="fill:#FFEED1;" width="18.204" height="195.015"/>
</g>
<rect x="181.419" y="90.069" style="fill:#FFC778;" width="149.163" height="222.322"/>
<g>
	<rect x="172.316" y="103.722" style="fill:#FFEED1;" width="18.204" height="195.015"/>
	<rect x="321.479" y="103.722" style="fill:#FFEED1;" width="18.204" height="195.015"/>
</g>
<rect x="217.748" y="173.309" style="fill:#76472D;" width="76.504" height="139.082"/>
<rect x="58.953" y="289.635" style="fill:#FFB34C;" width="394.092" height="61.531"/>
<polygon style="fill:#FFC778;" points="58.953,328.412 58.953,466.969 231.718,466.969 231.718,400.795 280.282,400.795 
	280.282,466.969 453.047,466.969 453.047,328.412 "/>
<g>
	<path style="fill:#FFB34C;" d="M439.394,217.198c-5.027,0-9.102,4.076-9.102,9.102v39.558h18.204v-39.558
		C448.496,221.274,444.421,217.198,439.394,217.198z"/>
	<path style="fill:#FFB34C;" d="M471.146,217.198c-5.027,0-9.102,4.076-9.102,9.102v39.558h18.204v-39.558
		C480.248,221.274,476.173,217.198,471.146,217.198z"/>
	<path style="fill:#FFB34C;" d="M502.898,217.198c-5.027,0-9.102,4.076-9.102,9.102v39.558L512,243.103v-16.803
		C512,221.274,507.924,217.198,502.898,217.198z"/>
</g>
<rect x="430.296" y="243.1" style="fill:#FFDBA5;" width="81.708" height="235.247"/>
<g>
	<path style="fill:#FFB34C;" d="M9.102,217.198c-5.027,0-9.102,4.076-9.102,9.102v16.803l18.204,22.756v-39.558
		C18.204,221.274,14.129,217.198,9.102,217.198z"/>
	<path style="fill:#FFB34C;" d="M40.854,217.198c-5.027,0-9.102,4.076-9.102,9.102v39.558h18.204v-39.558
		C49.956,221.274,45.881,217.198,40.854,217.198z"/>
	<path style="fill:#FFB34C;" d="M72.606,217.198c-5.027,0-9.102,4.076-9.102,9.102v39.558h18.204v-39.558
		C81.708,221.274,77.633,217.198,72.606,217.198z"/>
</g>
<rect y="243.1" style="fill:#FFDBA5;" width="81.708" height="235.247"/>
<g>
	<path style="fill:#FFA01F;" d="M113.58,33.658c-5.027,0-9.102,4.076-9.102,9.102v16.803l18.204,22.756V42.76
		C122.681,37.733,118.607,33.658,113.58,33.658z"/>
	<path style="fill:#FFA01F;" d="M154.271,33.658c-5.027,0-9.102,4.076-9.102,9.102v39.558h18.204V42.76
		C163.374,37.733,159.298,33.658,154.271,33.658z"/>
	<path style="fill:#FFA01F;" d="M194.963,33.658c-5.027,0-9.102,4.076-9.102,9.102v39.558h18.204V42.76
		C204.065,37.733,199.989,33.658,194.963,33.658z"/>
	<path style="fill:#FFA01F;" d="M235.654,33.658c-5.027,0-9.102,4.076-9.102,9.102v39.558h18.204V42.76
		C244.756,37.733,240.681,33.658,235.654,33.658z"/>
	<path style="fill:#FFA01F;" d="M276.346,33.658c-5.027,0-9.102,4.076-9.102,9.102v39.558h18.204V42.76
		C285.448,37.733,281.374,33.658,276.346,33.658z"/>
	<path style="fill:#FFA01F;" d="M317.037,33.658c-5.027,0-9.102,4.076-9.102,9.102v39.558h18.204V42.76
		C326.139,37.733,322.065,33.658,317.037,33.658z"/>
	<path style="fill:#FFA01F;" d="M357.729,33.658c-5.027,0-9.102,4.076-9.102,9.102v39.558h18.204V42.76
		C366.831,37.733,362.757,33.658,357.729,33.658z"/>
	<path style="fill:#FFA01F;" d="M398.42,33.658c-5.027,0-9.102,4.076-9.102,9.102v39.558l18.204-22.756V42.76
		C407.522,37.733,403.448,33.658,398.42,33.658z"/>
</g>
<rect x="104.482" y="59.565" style="fill:#FFB34C;" width="303.047" height="53.257"/>
</svg>