<?xml version="1.0" encoding="iso-8859-1"?>
<!-- Uploaded to: SVG Repo, www.svgrepo.com, Generator: SVG Repo Mixer Tools -->
<svg height="800px" width="800px" version="1.1" id="Layer_1" xmlns="http://www.w3.org/2000/svg" xmlns:xlink="http://www.w3.org/1999/xlink" 
	 viewBox="0 0 498.427 498.427" xml:space="preserve">
<g>
	<circle style="fill:#00C9FF;" cx="385.247" cy="129.579" r="8.365"/>
	<circle style="fill:#00C9FF;" cx="417.244" cy="129.579" r="8.365"/>
	<circle style="fill:#00C9FF;" cx="449.247" cy="129.579" r="8.365"/>
</g>
<polyline style="fill:#0064A8;" points="19.687,154.21 71.911,102.002 124.135,154.21 "/>
<path style="fill:#00C9FF;" d="M124.135,173.902c-5.049,0-10.075-1.922-13.926-5.766l-38.298-38.29l-38.298,38.29
	c-7.696,7.696-20.157,7.696-27.845,0s-7.696-20.165,0-27.845l52.232-52.216c7.688-7.696,20.149-7.696,27.829,0l52.232,52.216
	c7.696,7.688,7.696,20.157,0,27.845C134.21,171.98,129.177,173.902,124.135,173.902z"/>
<polyline style="fill:#0064A8;" points="123.143,154.21 175.367,102.002 227.583,154.21 "/>
<path style="fill:#00C9FF;" d="M227.583,173.902c-5.049,0-10.075-1.922-13.926-5.766l-38.29-38.29l-38.305,38.29
	c-7.696,7.696-20.149,7.696-27.845,0s-7.696-20.165,0-27.845l52.232-52.216c7.696-7.696,20.157-7.696,27.845,0l52.216,52.216
	c7.696,7.696,7.696,20.157,0,27.845C237.658,171.98,232.624,173.902,227.583,173.902z"/>
<polyline style="fill:#0064A8;" points="226.598,154.21 278.815,102.002 331.031,154.21 "/>
<path style="fill:#00C9FF;" d="M331.031,173.902c-5.033,0-10.075-1.922-13.918-5.766l-38.298-38.29l-38.29,38.29
	c-7.696,7.696-20.157,7.696-27.845,0c-7.688-7.696-7.696-20.157,0-27.845l52.216-52.216c7.696-7.696,20.157-7.696,27.845,0
	l52.224,52.216c7.696,7.688,7.696,20.157,0,27.845C341.105,171.98,336.072,173.902,331.031,173.902z"/>
<polyline style="fill:#0064A8;" points="93.534,275.318 145.758,223.109 197.982,275.318 "/>
<path style="fill:#00C9FF;" d="M197.982,295.01c-5.049,0-10.075-1.922-13.926-5.766l-38.298-38.29l-38.298,38.29
	c-7.696,7.696-20.157,7.696-27.845,0s-7.696-20.165,0-27.845l52.232-52.216c7.688-7.696,20.141-7.696,27.837,0l52.224,52.216
	c7.696,7.688,7.696,20.157,0,27.845C208.056,293.088,203.015,295.01,197.982,295.01z"/>
<polyline style="fill:#0064A8;" points="196.981,275.318 249.213,223.109 301.429,275.318 "/>
<path style="fill:#00C9FF;" d="M301.429,295.01c-5.049,0-10.075-1.922-13.926-5.766l-38.29-38.29l-38.298,38.29
	c-7.704,7.696-20.157,7.696-27.845,0c-7.704-7.696-7.704-20.165,0-27.845l52.224-52.216c7.696-7.696,20.157-7.696,27.845,0
	l52.216,52.216c7.696,7.696,7.696,20.157,0,27.845C311.504,293.088,306.463,295.01,301.429,295.01z"/>
<polyline style="fill:#0064A8;" points="300.445,275.318 352.661,223.109 404.877,275.318 "/>
<path style="fill:#00C9FF;" d="M404.877,295.01c-5.033,0-10.067-1.922-13.919-5.766l-38.298-38.29l-38.29,38.29
	c-7.696,7.696-20.157,7.696-27.845,0s-7.696-20.157,0-27.845l52.216-52.216c7.696-7.696,20.157-7.696,27.845,0l52.224,52.216
	c7.688,7.688,7.688,20.157,0,27.845C414.951,293.088,409.918,295.01,404.877,295.01z"/>
<polyline style="fill:#0064A8;" points="167.38,396.425 219.596,344.217 271.828,396.425 "/>
<path style="fill:#00C9FF;" d="M271.828,416.118c-5.041,0-10.075-1.922-13.926-5.766l-38.305-38.29l-38.29,38.29
	c-7.696,7.696-20.157,7.696-27.845,0c-7.688-7.696-7.696-20.165,0-27.845l52.232-52.216c7.696-7.696,20.149-7.696,27.837,0
	l52.224,52.216c7.696,7.688,7.696,20.157,0,27.845C281.902,414.196,276.861,416.118,271.828,416.118z"/>
<polyline style="fill:#0064A8;" points="270.827,396.425 323.059,344.217 375.275,396.425 "/>
<path style="fill:#00C9FF;" d="M375.275,416.118c-5.041,0-10.075-1.922-13.926-5.766l-38.29-38.29l-38.298,38.29
	c-7.696,7.696-20.165,7.696-27.845,0c-7.696-7.696-7.696-20.165,0-27.845l52.224-52.216c7.696-7.696,20.157-7.696,27.845,0
	l52.216,52.216c7.696,7.696,7.696,20.157,0,27.845C385.35,414.196,380.309,416.118,375.275,416.118z"/>
<polyline style="fill:#0064A8;" points="374.291,396.425 426.507,344.217 478.731,396.425 "/>
<path style="fill:#00C9FF;" d="M478.731,416.118c-5.041,0-10.075-1.922-13.934-5.766l-38.29-38.29l-38.29,38.29
	c-7.696,7.696-20.157,7.696-27.845,0c-7.688-7.696-7.696-20.157,0-27.845l52.216-52.216c7.696-7.696,20.157-7.696,27.845,0
	l52.216,52.216c7.704,7.688,7.704,20.157,0,27.845C488.805,414.196,483.764,416.118,478.731,416.118z"/>
</svg>